REM DIRINDEX 1\2\3,1\2\4,1\2\5,1\2\6
REM DIRNAME cjc157,folder01,folder02,folder03,folder04,folder05
TITLE ""
FILE "030 030.mp3" MP3
  TRACK 01 AUDIO
    TITLE "0:"
    INDEX 01 00:00:00
  TRACK 02 AUDIO
    TITLE "3:cjc157_1128"
    INDEX 01 00:00:09
  TRACK 03 AUDIO
    TITLE "0:"
    INDEX 01 00:01:42
  TRACK 04 AUDIO
    TITLE "4:cjc157_1129"
    INDEX 01 00:02:12
  TRACK 05 AUDIO
    TITLE "0:"
    INDEX 01 00:03:25
  TRACK 06 AUDIO
    TITLE "5:cjc157_1130"
    INDEX 01 00:03:74
  TRACK 07 AUDIO
    TITLE "0:"
    INDEX 01 00:05:71
  TRACK 08 AUDIO
    TITLE "3:cjc157_1131"
    INDEX 01 00:06:39
  TRACK 09 AUDIO
    TITLE "0:"
    INDEX 01 00:07:39
  TRACK 10 AUDIO
    TITLE "4:cjc157_1132"
    INDEX 01 00:08:09
  TRACK 11 AUDIO
    TITLE "0:"
    INDEX 01 00:09:18
  TRACK 12 AUDIO
    TITLE "5:cjc157_1133"
    INDEX 01 00:09:69
  TRACK 13 AUDIO
    TITLE "0:"
    INDEX 01 00:12:07
  TRACK 14 AUDIO
    TITLE "5:cjc157_1134"
    INDEX 01 00:12:52
  TRACK 15 AUDIO
    TITLE "0:"
    INDEX 01 00:14:51
  TRACK 16 AUDIO
    TITLE "3:cjc157_1135"
    INDEX 01 00:15:21
  TRACK 17 AUDIO
    TITLE "0:"
    INDEX 01 00:16:59
  TRACK 18 AUDIO
    TITLE "4:cjc157_1136"
    INDEX 01 00:17:33
  TRACK 19 AUDIO
    TITLE "0:"
    INDEX 01 00:18:37
  TRACK 20 AUDIO
    TITLE "5:cjc157_1137"
    INDEX 01 00:19:05
  TRACK 21 AUDIO
    TITLE "0:"
    INDEX 01 00:21:00
  TRACK 22 AUDIO
    TITLE "5:cjc157_1138"
    INDEX 01 00:21:45
  TRACK 23 AUDIO
    TITLE "0:"
    INDEX 01 00:23:38
  TRACK 24 AUDIO
    TITLE "5:cjc157_1139"
    INDEX 01 00:24:18
  TRACK 25 AUDIO
    TITLE "0:"
    INDEX 01 00:25:72
  TRACK 26 AUDIO
    TITLE "5:cjc157_1140"
    INDEX 01 00:26:46
  TRACK 27 AUDIO
    TITLE "0:"
    INDEX 01 00:28:70
  TRACK 28 AUDIO
    TITLE "3:cjc157_1141"
    INDEX 01 00:29:42
  TRACK 29 AUDIO
    TITLE "0:"
    INDEX 01 00:31:12
  TRACK 30 AUDIO
    TITLE "4:cjc157_1142"
    INDEX 01 00:31:59
  TRACK 31 AUDIO
    TITLE "0:"
    INDEX 01 00:32:64
  TRACK 32 AUDIO
    TITLE "5:cjc157_1143"
    INDEX 01 00:33:34
  TRACK 33 AUDIO
    TITLE "0:"
    INDEX 01 00:36:15
  TRACK 34 AUDIO
    TITLE "5:cjc157_1144"
    INDEX 01 00:36:58
  TRACK 35 AUDIO
    TITLE "0:"
    INDEX 01 00:39:37
  TRACK 36 AUDIO
    TITLE "3:cjc157_1145"
    INDEX 01 00:40:07
  TRACK 37 AUDIO
    TITLE "0:"
    INDEX 01 00:41:28
  TRACK 38 AUDIO
    TITLE "4:cjc157_1146"
    INDEX 01 00:42:00
  TRACK 39 AUDIO
    TITLE "0:"
    INDEX 01 00:43:19
  TRACK 40 AUDIO
    TITLE "5:cjc157_1147"
    INDEX 01 00:43:60
  TRACK 41 AUDIO
    TITLE "0:"
    INDEX 01 00:45:39
  TRACK 42 AUDIO
    TITLE "5:cjc157_1148"
    INDEX 01 00:46:11
  TRACK 43 AUDIO
    TITLE "0:"
    INDEX 01 00:49:10
  TRACK 44 AUDIO
    TITLE "3:cjc157_1149"
    INDEX 01 00:49:53
  TRACK 45 AUDIO
    TITLE "0:"
    INDEX 01 00:50:66
  TRACK 46 AUDIO
    TITLE "4:cjc157_1150"
    INDEX 01 00:51:38
  TRACK 47 AUDIO
    TITLE "0:"
    INDEX 01 00:52:47
  TRACK 48 AUDIO
    TITLE "5:cjc157_1151"
    INDEX 01 00:53:15
  TRACK 49 AUDIO
    TITLE "0:"
    INDEX 01 00:55:65
  TRACK 50 AUDIO
    TITLE "5:cjc157_1152"
    INDEX 01 00:56:33
  TRACK 51 AUDIO
    TITLE "0:"
    INDEX 01 00:58:09
  TRACK 52 AUDIO
    TITLE "5:cjc157_1153"
    INDEX 01 00:58:54
  TRACK 53 AUDIO
    TITLE "0:"
    INDEX 01 01:00:39
  TRACK 54 AUDIO
    TITLE "3:cjc157_1154"
    INDEX 01 01:01:07
  TRACK 55 AUDIO
    TITLE "0:"
    INDEX 01 01:02:50
  TRACK 56 AUDIO
    TITLE "4:cjc157_1155"
    INDEX 01 01:03:16
  TRACK 57 AUDIO
    TITLE "0:"
    INDEX 01 01:04:43
  TRACK 58 AUDIO
    TITLE "5:cjc157_1156"
    INDEX 01 01:05:21
  TRACK 59 AUDIO
    TITLE "0:"
    INDEX 01 01:08:21
  TRACK 60 AUDIO
    TITLE "3:cjc157_1157"
    INDEX 01 01:08:66
  TRACK 61 AUDIO
    TITLE "0:"
    INDEX 01 01:10:24
  TRACK 62 AUDIO
    TITLE "4:cjc157_1158"
    INDEX 01 01:10:71
  TRACK 63 AUDIO
    TITLE "0:"
    INDEX 01 01:12:36
  TRACK 64 AUDIO
    TITLE "5:cjc157_1159"
    INDEX 01 01:13:06
  TRACK 65 AUDIO
    TITLE "0:"
    INDEX 01 01:16:12
  TRACK 66 AUDIO
    TITLE "5:cjc157_1160"
    INDEX 01 01:16:60
  TRACK 67 AUDIO
    TITLE "0:"
    INDEX 01 01:19:05
  TRACK 68 AUDIO
    TITLE "3:cjc157_1161"
    INDEX 01 01:19:50
  TRACK 69 AUDIO
    TITLE "0:"
    INDEX 01 01:21:06
  TRACK 70 AUDIO
    TITLE "4:cjc157_1162"
    INDEX 01 01:21:51
  TRACK 71 AUDIO
    TITLE "0:"
    INDEX 01 01:22:58
  TRACK 72 AUDIO
    TITLE "5:cjc157_1163"
    INDEX 01 01:23:24
  TRACK 73 AUDIO
    TITLE "0:"
    INDEX 01 01:25:13
  TRACK 74 AUDIO
    TITLE "5:cjc157_1164"
    INDEX 01 01:25:58
  TRACK 75 AUDIO
    TITLE "0:"
    INDEX 01 01:28:14
  TRACK 76 AUDIO
    TITLE "3:cjc157_1165"
    INDEX 01 01:28:63
  TRACK 77 AUDIO
    TITLE "0:"
    INDEX 01 01:30:32
  TRACK 78 AUDIO
    TITLE "4:cjc157_1166"
    INDEX 01 01:31:06
  TRACK 79 AUDIO
    TITLE "0:"
    INDEX 01 01:32:25
  TRACK 80 AUDIO
    TITLE "5:cjc157_1167"
    INDEX 01 01:32:72
  TRACK 81 AUDIO
    TITLE "0:"
    INDEX 01 01:35:33
